<svg width="123" height="132" viewBox="0 0 123 132" fill="none" xmlns="http://www.w3.org/2000/svg">
<g filter="url(#filter0_d_2_1034)">
<path d="M23.2467 83.6224L22.0148 79.0321L26.8575 77.7365L23.556 65.4343L26.1306 64.7455L20.2857 70.5076L18.8895 65.3052L23.9239 60.3175L27.939 59.2434L32.497 76.2277L37.0025 75.0223L38.2344 79.6127L23.2467 83.6224Z" fill="white"/>
<path d="M48.1206 77.3285C45.4643 78.0392 43.1609 77.6168 41.2105 76.0613C39.275 74.4799 37.8282 71.9041 36.8701 68.3338C35.901 64.7227 35.8695 61.7901 36.7757 59.536C37.7023 57.2764 39.4938 55.7912 42.1501 55.0806C44.8268 54.3645 47.122 54.7563 49.0355 56.256C50.9491 57.7558 52.3877 60.301 53.3513 63.8917C54.3149 67.4824 54.3444 70.4483 53.4397 72.7895C52.5499 75.1049 50.7769 76.6179 48.1206 77.3285ZM46.9133 72.83C47.8941 72.5676 48.4772 71.8431 48.6624 70.6565C48.8681 69.4644 48.6561 67.6952 48.0265 65.3491C47.3914 62.9825 46.6945 61.3649 45.9359 60.4965C45.1921 59.6021 44.3299 59.2861 43.3491 59.5485C42.3683 59.8109 41.7696 60.5178 41.553 61.669C41.3513 62.7945 41.5653 64.5303 42.1949 66.8764C42.83 69.243 43.5249 70.8939 44.2795 71.829C45.0546 72.7587 45.9326 73.0924 46.9133 72.83Z" fill="white"/>
<path d="M66.4984 72.4118C63.8421 73.1225 61.5387 72.7 59.5882 71.1446C57.6528 69.5632 56.206 66.9874 55.2478 63.4171C54.2788 59.806 54.2473 56.8734 55.1535 54.6193C56.0801 52.3596 57.8716 50.8745 60.5278 50.1638C63.2046 49.4477 65.4997 49.8395 67.4133 51.3393C69.3269 52.839 70.7655 55.3843 71.7291 58.9749C72.6927 62.5656 72.7221 65.5316 71.8174 67.8728C70.9277 70.1881 69.1547 71.7011 66.4984 72.4118ZM65.2911 67.9132C66.2719 67.6509 66.8549 66.9263 67.0402 65.7397C67.2459 64.5477 67.0339 62.7785 66.4043 60.4323C65.7692 58.0657 65.0723 56.4482 64.3136 55.5797C63.5699 54.6854 62.7077 54.3694 61.7269 54.6318C60.7461 54.8942 60.1474 55.601 59.9307 56.7523C59.7291 57.8777 59.943 59.6135 60.5726 61.9597C61.2078 64.3263 61.9026 65.9772 62.6573 66.9123C63.4324 67.842 64.3103 68.1756 65.2911 67.9132Z" fill="white"/>
<path d="M86.3489 66.7403L81.8128 67.9538L88.6506 43.0008L93.1867 41.7872L86.3489 66.7403ZM79.9319 59.1092C78.093 59.6011 76.5011 59.382 75.1565 58.4516C73.8063 57.5008 72.863 56.0258 72.3264 54.0264C71.7844 52.0066 71.8682 50.2787 72.5777 48.8424C73.3023 47.3803 74.5738 46.406 76.3923 45.9195C78.2109 45.433 79.7925 45.6549 81.1372 46.5853C82.4819 47.5156 83.417 48.9601 83.9426 50.9186C84.4791 52.918 84.4008 54.6664 83.7077 56.1638C83.0091 57.6408 81.7505 58.6226 79.9319 59.1092ZM79.045 55.8041C79.515 55.6784 79.8068 55.3379 79.9206 54.7826C80.0494 54.2015 79.9495 53.2989 79.621 52.0748C79.2925 50.8507 78.9325 50.0396 78.5409 49.6414C78.1494 49.2433 77.7288 49.1043 77.2793 49.2246C76.7889 49.3558 76.4813 49.6786 76.3566 50.193C76.2318 50.7075 76.3392 51.5971 76.6787 52.862C77.0181 54.1269 77.3761 54.9714 77.7527 55.3954C78.1238 55.7991 78.5546 55.9353 79.045 55.8041ZM98.6071 63.8215C96.7886 64.3081 95.207 64.0861 93.8623 63.1558C92.5121 62.205 91.5688 60.7299 91.0322 58.7306C90.4902 56.7108 90.574 54.9828 91.2836 53.5466C92.0081 52.0845 93.2694 51.1129 95.0675 50.6319C96.9065 50.1399 98.4881 50.3618 99.8124 51.2976C101.157 52.228 102.092 53.6725 102.618 55.631C103.154 57.6304 103.076 59.3788 102.383 60.8762C101.705 62.3478 100.446 63.3295 98.6071 63.8215ZM97.7202 60.5165C98.2106 60.3853 98.5127 60.042 98.6265 59.4868C98.7348 58.9112 98.6247 58.0113 98.2962 56.7872C97.9677 55.5631 97.6077 54.752 97.2161 54.3538C96.845 53.9502 96.4244 53.8112 95.9545 53.9369C95.4845 54.0627 95.1797 54.3957 95.04 54.936C94.9152 55.4504 95.0199 56.3299 95.3538 57.5744C95.6933 58.8393 96.0513 59.6838 96.4279 60.1078C96.8195 60.506 97.2502 60.6422 97.7202 60.5165Z" fill="white"/>
<path d="M27.9149 96.0598C27.737 96.405 27.7307 96.814 27.8981 97.1656C29.657 100.693 33.1325 103.407 37.4159 104.606C41.606 105.778 45.8329 105.34 49.1098 103.417C49.4286 103.443 49.9212 103.47 50.5591 103.489C47.6375 105.146 44.9576 107.441 43.6532 110.626C43.5175 110.957 43.5336 111.333 43.6993 111.651C43.8598 111.971 44.1545 112.203 44.5028 112.284C50.2966 113.684 56.2587 112.532 60.4462 109.233C62.832 107.334 64.3185 104.916 64.6579 102.437C65.7911 102.221 66.9693 101.995 68.1764 101.704C65.6108 104.181 63.4169 107.338 63.0284 111.059C62.9873 111.413 63.1085 111.768 63.3573 112.025C63.5994 112.287 63.9438 112.429 64.2991 112.415C70.185 112.152 75.5474 109.407 78.6511 105.076C80.3978 102.625 81.1512 99.9191 80.8257 97.4636C81.8433 97.0002 82.8519 96.5118 83.8818 95.9909C82.1956 98.728 81.0102 101.88 81.3388 105.181C81.3742 105.535 81.564 105.857 81.8583 106.06C82.1489 106.267 82.5149 106.337 82.8604 106.252C88.5457 104.843 93.4302 100.915 95.628 96.0077C96.8993 93.1324 97.0824 90.2031 96.1712 87.8138C98.9135 85.5067 101.465 82.9829 103.801 80.2661C104.218 79.7817 104.191 79.0567 103.737 78.6017C103.718 78.5799 103.694 78.5618 103.667 78.5501C103.423 78.3386 103.104 78.2338 102.782 78.2584C102.46 78.283 102.162 78.4354 101.955 78.6813C99.7471 81.2399 97.3434 83.623 94.7647 85.8079C94.7086 85.7528 94.6441 85.706 94.574 85.6697C89.0764 82.2798 81.6554 82.2969 75.197 85.6871C74.9072 85.8388 74.6928 86.1027 74.6038 86.4171C74.5007 86.7295 74.5361 87.0711 74.7005 87.358C76.3874 90.3895 80.1928 92.5324 84.2157 93.0578C82.7257 93.8738 81.2428 94.6109 79.7676 95.2711C74.7783 90.8058 67.133 88.9423 60.9081 90.7647C60.6004 90.8617 60.3437 91.0745 60.1923 91.3586C60.0327 91.6444 59.9989 91.9842 60.0998 92.2967C61.0474 95.3245 63.8875 97.9869 67.2969 99.4314C66.3134 99.653 65.3641 99.8413 64.4323 100.011L64.4064 99.9155C64.3812 99.8166 64.3431 99.7209 64.2934 99.632C63.5646 98.3614 62.6678 97.1941 61.6272 96.1615C58.0979 92.6377 52.9401 90.5661 47.3051 90.5793C46.9795 90.5749 46.6671 90.7056 46.4431 90.9398C46.2114 91.1695 46.0841 91.4834 46.0909 91.8101C46.1584 95.1956 48.4365 98.7595 51.6351 101.111C50.5565 101.083 49.7576 101.033 49.3386 101.003C42.2031 94.7762 36.6016 94.2349 28.8118 95.4331C28.4304 95.4901 28.0985 95.7219 27.9149 96.0598Z" fill="white"/>
<path d="M94.0043 28.1118C94.1822 27.7666 94.1886 27.3576 94.0212 27.006C92.2623 23.4785 88.7868 20.7645 84.5033 19.566C80.3132 18.3933 76.0863 18.8315 72.8095 20.755C72.4907 20.7286 71.998 20.7018 71.3601 20.6823C74.2817 19.0257 76.9617 16.7308 78.2661 13.5453C78.4018 13.2141 78.3856 12.8388 78.2199 12.5202C78.0594 12.2004 77.7647 11.9687 77.4164 11.8879C71.6226 10.4874 65.6606 11.6391 61.473 14.9383C59.0872 16.838 57.6008 19.2557 57.2613 21.7346C56.1281 21.9502 54.9499 22.177 53.7428 22.4674C56.3085 19.991 58.5024 16.8332 58.8908 13.1125C58.9319 12.7582 58.8108 12.4039 58.5619 12.1466C58.3199 11.8848 57.9755 11.7422 57.6201 11.7563C51.7342 12.02 46.3718 14.7645 43.2681 19.0951C41.5214 21.5471 40.768 24.2524 41.0935 26.708C40.076 27.1714 39.0674 27.6598 38.0375 28.1806C39.7236 25.4436 40.909 22.2916 40.5805 18.991C40.5451 18.6365 40.3552 18.3147 40.061 18.1115C39.7703 17.9047 39.4044 17.8344 39.0589 17.9192C33.3735 19.3286 28.4891 23.2567 26.2912 28.1638C25.0199 31.0392 24.8368 33.9685 25.748 36.3577C23.0058 38.6649 20.4547 41.1887 18.1186 43.9054C17.7011 44.3899 17.7285 45.1148 18.1818 45.5699C18.2012 45.5916 18.225 45.6098 18.252 45.6215C18.4967 45.833 18.8153 45.9378 19.1376 45.9132C19.4591 45.8886 19.7569 45.7362 19.9645 45.4903C22.1721 42.9316 24.5758 40.5485 27.1546 38.3636C27.2106 38.4188 27.2751 38.4655 27.3452 38.5019C32.8429 41.8917 40.2638 41.8747 46.7223 38.4844C47.0121 38.3328 47.2264 38.0688 47.3154 37.7544C47.4186 37.442 47.3832 37.1004 47.2188 36.8136C45.5318 33.7821 41.7264 31.6391 37.7035 31.1138C39.1936 30.2978 40.6765 29.5606 42.1516 28.9005C47.1409 33.3658 54.7863 35.2292 61.0112 33.4068C61.3188 33.3099 61.5755 33.0971 61.727 32.8129C61.8865 32.5272 61.9204 32.1873 61.8195 31.8749C60.8719 28.8471 58.0318 26.1846 54.6224 24.7402C55.6058 24.5186 56.5551 24.3303 57.4869 24.1604L57.5129 24.256C57.538 24.355 57.5761 24.4507 57.6258 24.5396C58.3546 25.8102 59.2514 26.9774 60.2921 28.01C63.8213 31.5338 68.9791 33.6055 74.6141 33.5923C74.9397 33.5967 75.2521 33.4659 75.4762 33.2318C75.7079 33.0021 75.8351 32.6881 75.8284 32.3614C75.7608 28.976 73.4827 25.412 70.2841 23.0602C71.3627 23.0883 72.1617 23.1387 72.5807 23.1689C79.7162 29.3953 85.3177 29.9366 93.1075 28.7385C93.4889 28.6814 93.8208 28.4497 94.0043 28.1118Z" fill="white"/>
</g>
<defs>
<filter id="filter0_d_2_1034" x="7.82276" y="2.30292" width="114.274" height="129.566" filterUnits="userSpaceOnUse" color-interpolation-filters="sRGB">
<feFlood flood-opacity="0" result="BackgroundImageFix"/>
<feColorMatrix in="SourceAlpha" type="matrix" values="0 0 0 0 0 0 0 0 0 0 0 0 0 0 0 0 0 0 127 0" result="hardAlpha"/>
<feOffset dx="4" dy="5"/>
<feGaussianBlur stdDeviation="7"/>
<feComposite in2="hardAlpha" operator="out"/>
<feColorMatrix type="matrix" values="0 0 0 0 0.8625 0 0 0 0 0.3128 0 0 0 0 0.00359374 0 0 0 0.3 0"/>
<feBlend mode="normal" in2="BackgroundImageFix" result="effect1_dropShadow_2_1034"/>
<feBlend mode="normal" in="SourceGraphic" in2="effect1_dropShadow_2_1034" result="shape"/>
</filter>
</defs>
</svg>
