<svg width="1920" height="449" viewBox="0 0 1920 449" fill="none" xmlns="http://www.w3.org/2000/svg">
<path fill-rule="evenodd" clip-rule="evenodd" d="M0 449L1920 449L1920 18L1918.91 18C1917.44 7.84241 1907.81 0.00030411 1896.16 0.000303091C1885.22 0.000302135 1876.07 6.90585 1873.76 16.1502C1871.46 6.90585 1862.31 0.000300132 1851.37 0.000299176C1840.43 0.00029822 1831.28 6.90487 1828.98 16.1482C1826.67 6.90484 1817.52 0.000265699 1806.58 0.000264743C1795.64 0.000263787 1786.49 6.90581 1784.19 16.1502C1781.88 6.90581 1772.73 0.000261784 1761.8 0.000260828C1750.86 0.000259871 1741.71 6.90486 1739.4 16.1482C1737.1 6.90486 1727.95 0.000288386 1717.01 0.00028743C1706.07 0.000286474 1696.92 6.90583 1694.62 16.1502C1692.31 6.90583 1683.16 0.000284471 1672.22 0.000283514C1661.28 0.000282558 1652.13 6.90583 1649.83 16.1502C1647.52 6.90583 1638.37 0.000280555 1627.44 0.000279599C1616.5 0.000278643 1607.35 6.90482 1605.04 16.1482C1602.74 6.90482 1593.59 0.00027664 1582.65 0.000275684C1571.71 0.000274727 1562.56 6.90582 1560.26 16.1501C1557.95 6.90582 1548.8 0.000303242 1537.86 0.000302286C1526.21 0.000301267 1516.58 7.8424 1515.1 18L1514.71 18C1513.24 7.8424 1503.61 0.000299292 1491.96 0.000298273C1480.3 0.000297254 1470.67 7.84237 1469.2 18L1468.81 18C1467.33 7.84237 1457.71 0.000295278 1446.05 0.000294259C1434.39 0.00029324 1424.77 7.84239 1423.29 18L1422.9 18C1421.43 7.84239 1411.8 0.000291265 1400.14 0.000290246C1388.49 0.000289227 1378.86 7.84239 1377.39 18L1376.99 18C1375.52 7.84239 1365.89 0.000287252 1354.24 0.000286233C1342.58 0.000285214 1332.95 7.84236 1331.48 17.9999L1331.09 17.9999C1329.61 7.84236 1319.99 0.000283239 1308.33 0.00028222C1296.67 0.000281201 1287.05 7.84238 1285.57 17.9999L1285.18 17.9999C1283.71 7.84238 1274.08 0.000279225 1262.42 0.000278206C1250.77 0.000277187 1241.14 7.84238 1239.67 17.9999L1239.28 17.9999C1237.8 7.84238 1228.17 0.000275212 1216.52 0.000274193C1204.86 0.000273174 1195.23 7.84237 1193.76 17.9999L1193.37 17.9999C1191.89 7.84237 1182.27 0.000271199 1170.61 0.00027018C1158.96 0.000269161 1149.33 7.84237 1147.85 17.9999L1147.46 17.9999C1145.99 7.84237 1136.36 0.000267185 1124.7 0.000266166C1113.05 0.000265147 1103.42 7.84234 1101.95 17.9999L1101.56 17.9999C1100.08 7.84234 1090.46 0.000263172 1078.8 0.000262153C1067.14 0.000261134 1057.52 7.84236 1056.04 17.9999L1055.65 17.9999C1054.18 7.84236 1044.55 0.000259159 1032.89 0.00025814C1021.24 0.000257121 1011.61 7.84236 1010.13 17.9999L1009.74 17.9999C1008.27 7.84236 998.642 0.000255146 986.986 0.000254127C975.33 0.000253108 965.703 7.84232 964.229 17.9999L963.838 17.9999C962.363 7.84232 952.736 0.000251132 941.08 0.000250113C929.424 0.000249094 919.797 7.84235 918.322 17.9999L917.931 17.9999C916.457 7.84235 906.83 0.000247119 895.174 0.0002461C883.518 0.000245081 873.891 7.84235 872.416 17.9999L872.024 17.9999C870.55 7.84235 860.923 0.000243106 849.267 0.000242087C837.61 0.000241068 827.984 7.84234 826.509 17.9999L826.118 17.9999C824.643 7.84234 815.016 0.000239093 803.36 0.000238074C791.704 0.000237055 782.077 7.84231 780.603 17.9999L780.212 17.9999C778.738 7.84231 769.111 0.000235079 757.454 0.00023406C745.798 0.000233041 736.171 7.84233 734.697 17.9999L734.306 17.9999C732.831 7.84233 723.204 0.000231066 711.548 0.000230047C699.892 0.000229028 690.265 7.84233 688.791 17.9999L688.399 17.9999C686.925 7.84233 677.298 0.000227053 665.642 0.000226034C653.986 0.000225015 644.359 7.84233 642.884 17.9999L642.493 17.9999C641.019 7.84233 631.392 0.00022304 619.736 0.000222021C608.079 0.000221002 598.453 7.84232 596.978 17.9999L596.587 17.9999C595.112 7.84232 585.485 0.000219026 573.829 0.000218007C562.173 0.000216988 552.546 7.84232 551.072 17.9999L550.68 17.9999C549.206 7.84232 539.579 0.000215013 527.923 0.000213994C516.267 0.000212975 506.64 7.84231 505.165 17.9999L504.774 17.9999C503.3 7.84231 493.673 0.000211 482.017 0.000209981C470.36 0.000208962 460.734 7.84231 459.259 17.9999L458.868 17.9999C457.393 7.84231 447.766 0.000206987 436.11 0.000205968C424.454 0.000204949 414.827 7.84231 413.353 17.9999L412.961 17.9999C411.487 7.84231 401.86 0.000202973 390.204 0.000201954C378.548 0.000200935 368.921 7.8423 367.446 17.9999L367.055 17.9999C365.581 7.8423 355.954 0.00019896 344.298 0.000197941C332.642 0.000196922 323.015 7.8423 321.54 17.9999L321.149 17.9999C319.674 7.8423 310.048 0.000194947 298.391 0.000193928C286.735 0.000192909 277.108 7.84229 275.634 17.9999L275.243 17.9999C273.768 7.84229 264.141 0.000190934 252.485 0.000189915C240.829 0.000188896 231.202 7.84229 229.728 17.9999L229.336 17.9999C227.862 7.84229 218.235 0.00018692 206.579 0.000185901C194.923 0.000184882 185.296 7.84229 183.821 17.9998L183.43 17.9998C181.956 7.84229 172.329 0.000182907 160.672 0.000181888C149.016 0.000180869 139.389 7.84228 137.915 17.9998L137.523 17.9998C136.049 7.84228 126.422 0.000178894 114.766 0.000177875C103.109 0.000176856 93.4826 7.84228 92.0081 17.9998L91.6169 17.9998C90.1425 7.84225 80.5155 0.000144363 68.8593 0.000143344C57.2032 0.000142325 47.5762 7.84224 46.1018 17.9998L45.7111 17.9998C44.2369 7.84227 34.6097 0.000170867 22.9534 0.000169848C11.2973 0.000168829 1.67045 7.84227 0.195961 17.9998L3.76792e-05 17.9998L0 449Z" fill="#F7F7F7"/>
</svg>
